<?xml version="1.0" encoding="UTF-8"?>
<svg xmlns="http://www.w3.org/2000/svg" xmlns:xlink="http://www.w3.org/1999/xlink" width="276.604pt" height="141.983pt" viewBox="0 0 276.604 141.983">
<defs>
<g>
<g id="glyph-0-0">
<path d="M 5.046875 -4.203125 L 5.046875 -4.453125 C 4.453125 -4.4375 3.859375 -4.4375 3.265625 -4.453125 L 3.265625 -4.203125 C 3.453125 -4.171875 3.84375 -4.234375 3.84375 -3.953125 C 3.84375 -3.53125 2.75 -0.953125 2.75 -0.953125 C 2.75 -0.953125 1.59375 -3.6875 1.59375 -4 C 1.59375 -4.234375 2.03125 -4.1875 2.1875 -4.203125 L 2.1875 -4.453125 C 1.46875 -4.4375 0.75 -4.421875 0.046875 -4.453125 L 0.046875 -4.203125 C 0.53125 -4.140625 0.5625 -4.1875 0.75 -3.703125 L 2.328125 0.0625 L 2.6875 0.0625 L 4.203125 -3.53125 C 4.453125 -4.078125 4.46875 -4.140625 5.046875 -4.203125 Z M 5.046875 -4.203125 "/>
</g>
<g id="glyph-0-1">
<path d="M 1.953125 -6.265625 C 1.953125 -6.5625 1.703125 -6.828125 1.421875 -6.828125 C 1.109375 -6.828125 0.875 -6.5625 0.875 -6.265625 C 0.875 -5.984375 1.125 -5.734375 1.421875 -5.734375 C 1.703125 -5.734375 1.953125 -5.984375 1.953125 -6.265625 Z M 2.609375 0.015625 L 2.609375 -0.25 C 1.9375 -0.3125 1.84375 -0.234375 1.84375 -0.953125 L 1.84375 -4.5 L 1.796875 -4.578125 L 0.296875 -4.171875 L 0.296875 -3.9375 C 0.953125 -3.875 1.03125 -4 1.03125 -3.234375 L 1.03125 -0.953125 C 1.03125 -0.234375 0.9375 -0.3125 0.265625 -0.25 L 0.265625 0.015625 C 1.046875 -0.015625 1.828125 -0.015625 2.609375 0.015625 Z M 2.609375 0.015625 "/>
</g>
<g id="glyph-0-2">
<path d="M 5.46875 -0.109375 L 5.46875 -0.375 C 5.46875 -0.375 4.6875 -0.140625 4.6875 -1 L 4.6875 -7.0625 L 4.640625 -7.15625 C 3.765625 -6.921875 4.046875 -7 3.09375 -6.796875 L 3.09375 -6.5625 C 3.09375 -6.5625 3.875 -6.796875 3.875 -6.03125 L 3.875 -4.359375 C 3.875 -4.359375 3.296875 -4.5625 3 -4.5625 C 1.640625 -4.5625 0.375 -3.484375 0.375 -2.078125 C 0.375 -0.84375 1.15625 0.125 2.4375 0.125 C 3.59375 0.109375 3.890625 -0.6875 3.890625 -0.6875 L 3.875 0.09375 C 4.828125 -0.0625 4.546875 -0.015625 5.46875 -0.109375 Z M 3.875 -1.5 C 3.875 -0.9375 3.203125 -0.453125 2.6875 -0.453125 C 1.6875 -0.453125 1.25 -1.515625 1.25 -2.375 C 1.25 -3.265625 1.640625 -4.140625 2.65625 -4.140625 C 2.875 -4.140625 3.875 -3.890625 3.875 -3.578125 Z M 3.875 -1.5 "/>
</g>
<g id="glyph-0-3">
<path d="M 4.203125 -2.921875 C 4.203125 -3.84375 3.5 -4.5625 2.578125 -4.5625 C 2.15625 -4.5625 1.75 -4.40625 1.40625 -4.1875 C 0.640625 -3.703125 0.328125 -2.96875 0.328125 -2.078125 C 0.328125 -0.78125 1.109375 0.15625 2.453125 0.15625 C 2.875 0.15625 3.546875 0 3.9375 -0.484375 L 4.140625 -0.78125 L 4 -0.890625 C 3.640625 -0.625 3.3125 -0.421875 2.84375 -0.421875 C 1.671875 -0.421875 1.171875 -1.359375 1.15625 -2.40625 C 1.15625 -2.40625 2.453125 -2.34375 3.359375 -2.453125 L 4.203125 -2.71875 Z M 3.390625 -3.203125 C 3.390625 -2.953125 3.296875 -2.765625 3.015625 -2.75 C 2.390625 -2.703125 1.203125 -2.796875 1.203125 -2.796875 C 1.21875 -3.484375 1.59375 -4.234375 2.375 -4.234375 C 2.84375 -4.234375 3.390625 -3.671875 3.390625 -3.203125 Z M 3.390625 -3.203125 "/>
</g>
<g id="glyph-0-4">
<path d="M 3.703125 -4.171875 C 3.703125 -4.375 3.296875 -4.5625 3.140625 -4.5625 C 2.59375 -4.5625 2.0625 -3.984375 1.828125 -3.515625 L 1.828125 -4.5 L 1.796875 -4.5625 C 0.953125 -4.3125 1.234375 -4.390625 0.296875 -4.171875 L 0.296875 -3.9375 C 0.953125 -3.875 1.03125 -4 1.03125 -3.234375 L 1.03125 -0.953125 C 1.03125 -0.234375 0.921875 -0.3125 0.265625 -0.25 L 0.265625 0.015625 C 1.09375 0 1.90625 0 2.734375 0.015625 L 2.734375 -0.25 C 2.046875 -0.296875 1.828125 -0.171875 1.828125 -0.953125 L 1.828125 -2.859375 C 1.828125 -3.203125 2.25 -3.765625 2.65625 -3.765625 C 2.890625 -3.765625 3.171875 -3.5625 3.171875 -3.453125 L 3.3125 -3.421875 Z M 3.703125 -4.171875 "/>
</g>
<g id="glyph-0-5">
<path d="M 8.34375 0.015625 L 8.34375 -0.25 C 7.6875 -0.3125 7.609375 -0.234375 7.609375 -0.953125 L 7.609375 -3.09375 C 7.609375 -3.953125 7.125 -4.5625 6.234375 -4.5625 C 5.546875 -4.5625 5.046875 -4.171875 4.640625 -3.703125 C 4.40625 -4.296875 3.96875 -4.5625 3.359375 -4.5625 C 2.625 -4.5625 2.265625 -4.203125 1.8125 -3.765625 L 1.8125 -4.515625 L 1.78125 -4.578125 C 0.875 -4.3125 1.171875 -4.390625 0.265625 -4.171875 L 0.265625 -3.9375 C 0.9375 -3.875 1 -3.984375 1 -3.234375 L 1 -0.953125 C 1 -0.21875 0.890625 -0.3125 0.234375 -0.25 L 0.234375 0.015625 C 1 -0.015625 1.765625 -0.015625 2.53125 0.015625 L 2.53125 -0.25 C 1.890625 -0.3125 1.8125 -0.25 1.8125 -0.953125 L 1.8125 -3.28125 C 2 -3.6875 2.5625 -3.984375 3 -3.984375 C 3.671875 -3.984375 3.90625 -3.421875 3.90625 -2.828125 L 3.90625 -0.953125 C 3.90625 -0.234375 3.796875 -0.3125 3.140625 -0.25 L 3.140625 0.015625 C 3.90625 -0.015625 4.671875 -0.015625 5.4375 0.015625 L 5.4375 -0.25 C 4.78125 -0.3125 4.703125 -0.234375 4.703125 -0.953125 L 4.703125 -3.265625 C 4.90625 -3.671875 5.4375 -3.984375 5.875 -3.984375 C 6.5625 -3.984375 6.796875 -3.40625 6.796875 -2.8125 L 6.796875 -1.03125 C 6.796875 -0.78125 6.78125 -0.234375 6.453125 -0.203125 L 6.453125 0.015625 C 7.078125 -0.015625 7.71875 -0.015625 8.34375 0.015625 Z M 8.34375 0.015625 "/>
</g>
<g id="glyph-0-6">
<path d="M 5.359375 -2.671875 C 5.359375 -3.734375 4.515625 -4.5625 3.453125 -4.5625 C 2.828125 -4.5625 2.328125 -4.234375 1.875 -3.765625 L 1.875 -4.5625 L 1.828125 -4.609375 C 0.875 -4.34375 1.171875 -4.40625 0.296875 -4.203125 L 0.296875 -3.96875 C 0.984375 -3.921875 1.0625 -4.015625 1.0625 -3.265625 L 1.0625 1.578125 C 1.0625 2.296875 0.953125 2.21875 0.296875 2.28125 L 0.296875 2.546875 C 1.109375 2.515625 1.90625 2.515625 2.734375 2.546875 L 2.734375 2.28125 C 2.046875 2.234375 1.875 2.34375 1.875 1.578125 L 1.875 -0.109375 C 2.109375 0.046875 2.4375 0.125 2.71875 0.125 C 4.796875 0.109375 5.359375 -0.890625 5.359375 -2.671875 Z M 4.5 -2.21875 C 4.5 -1.359375 4 -0.375 3.046875 -0.375 C 2.578125 -0.375 2.1875 -0.53125 1.875 -0.875 L 1.875 -3.296875 C 2.03125 -3.703125 2.609375 -3.96875 3.03125 -3.96875 C 4.0625 -3.96875 4.5 -3.15625 4.5 -2.21875 Z M 4.5 -2.21875 "/>
</g>
<g id="glyph-0-7">
<path d="M 2.65625 0.015625 L 2.65625 -0.25 C 1.984375 -0.3125 1.875 -0.21875 1.875 -0.953125 L 1.875 -7.0625 L 1.828125 -7.15625 C 0.953125 -6.921875 1.25 -7 0.3125 -6.796875 L 0.3125 -6.5625 C 0.8125 -6.53125 1.0625 -6.65625 1.0625 -6.03125 L 1.0625 -0.953125 C 1.0625 -0.21875 0.953125 -0.3125 0.296875 -0.25 L 0.296875 0.015625 C 1.078125 -0.015625 1.859375 -0.015625 2.65625 0.015625 Z M 2.65625 0.015625 "/>
</g>
</g>
<clipPath id="clip-0">
<path clip-rule="nonzero" d="M 51 117 L 212 117 L 212 141.984375 L 51 141.984375 Z M 51 117 "/>
</clipPath>
<clipPath id="clip-1">
<path clip-rule="nonzero" d="M 48 114 L 79 114 L 79 141.984375 L 48 141.984375 Z M 48 114 "/>
</clipPath>
<clipPath id="clip-2">
<path clip-rule="nonzero" d="M 71 114 L 101 114 L 101 141.984375 L 71 141.984375 Z M 71 114 "/>
</clipPath>
<clipPath id="clip-3">
<path clip-rule="nonzero" d="M 94 114 L 124 114 L 124 141.984375 L 94 141.984375 Z M 94 114 "/>
</clipPath>
<clipPath id="clip-4">
<path clip-rule="nonzero" d="M 116 114 L 147 114 L 147 141.984375 L 116 141.984375 Z M 116 114 "/>
</clipPath>
<clipPath id="clip-5">
<path clip-rule="nonzero" d="M 139 114 L 169 114 L 169 141.984375 L 139 141.984375 Z M 139 114 "/>
</clipPath>
<clipPath id="clip-6">
<path clip-rule="nonzero" d="M 162 114 L 192 114 L 192 141.984375 L 162 141.984375 Z M 162 114 "/>
</clipPath>
<clipPath id="clip-7">
<path clip-rule="nonzero" d="M 184 114 L 215 114 L 215 141.984375 L 184 141.984375 Z M 184 114 "/>
</clipPath>
</defs>
<path fill-rule="nonzero" fill="rgb(54.499817%, 26.998901%, 7.499695%)" fill-opacity="1" stroke-width="0.3985" stroke-linecap="butt" stroke-linejoin="miter" stroke="rgb(0%, 0%, 0%)" stroke-opacity="1" stroke-miterlimit="10" d="M -11.338875 -11.339531 L -11.338875 11.340156 L 147.403312 11.340156 L 147.403312 -11.339531 Z M -11.338875 -11.339531 " transform="matrix(1, 0, 0, -1, 63.417, 20.68)"/>
<path fill-rule="nonzero" fill="rgb(100%, 100%, 93.998718%)" fill-opacity="1" stroke-width="0.3985" stroke-linecap="butt" stroke-linejoin="miter" stroke="rgb(0%, 0%, 0%)" stroke-opacity="1" stroke-miterlimit="10" d="M 9.071281 0.0003125 C 9.071281 5.008125 5.008781 9.070625 0.00096875 9.070625 C -5.01075 9.070625 -9.069344 5.008125 -9.069344 0.0003125 C -9.069344 -5.011406 -5.01075 -9.07 0.00096875 -9.07 C 5.008781 -9.07 9.071281 -5.011406 9.071281 0.0003125 Z M 9.071281 0.0003125 " transform="matrix(1, 0, 0, -1, 63.417, 20.68)"/>
<path fill-rule="nonzero" fill="rgb(100%, 100%, 93.998718%)" fill-opacity="1" stroke-width="0.3985" stroke-linecap="butt" stroke-linejoin="miter" stroke="rgb(0%, 0%, 0%)" stroke-opacity="1" stroke-miterlimit="10" d="M 31.747062 0.0003125 C 31.747062 5.008125 27.688469 9.070625 22.67675 9.070625 C 17.668937 9.070625 13.606437 5.008125 13.606437 0.0003125 C 13.606437 -5.011406 17.668937 -9.07 22.67675 -9.07 C 27.688469 -9.07 31.747062 -5.011406 31.747062 0.0003125 Z M 31.747062 0.0003125 " transform="matrix(1, 0, 0, -1, 63.417, 20.68)"/>
<path fill-rule="nonzero" fill="rgb(100%, 100%, 93.998718%)" fill-opacity="1" stroke-width="0.3985" stroke-linecap="butt" stroke-linejoin="miter" stroke="rgb(0%, 0%, 0%)" stroke-opacity="1" stroke-miterlimit="10" d="M 54.42675 0.0003125 C 54.42675 5.008125 50.36425 9.070625 45.356437 9.070625 C 40.344719 9.070625 36.286125 5.008125 36.286125 0.0003125 C 36.286125 -5.011406 40.344719 -9.07 45.356437 -9.07 C 50.36425 -9.07 54.42675 -5.011406 54.42675 0.0003125 Z M 54.42675 0.0003125 " transform="matrix(1, 0, 0, -1, 63.417, 20.68)"/>
<path fill-rule="nonzero" fill="rgb(100%, 100%, 93.998718%)" fill-opacity="1" stroke-width="0.3985" stroke-linecap="butt" stroke-linejoin="miter" stroke="rgb(0%, 0%, 0%)" stroke-opacity="1" stroke-miterlimit="10" d="M 77.102531 0.0003125 C 77.102531 5.008125 73.043937 9.070625 68.032219 9.070625 C 63.024406 9.070625 58.961906 5.008125 58.961906 0.0003125 C 58.961906 -5.011406 63.024406 -9.07 68.032219 -9.07 C 73.043937 -9.07 77.102531 -5.011406 77.102531 0.0003125 Z M 77.102531 0.0003125 " transform="matrix(1, 0, 0, -1, 63.417, 20.68)"/>
<path fill-rule="nonzero" fill="rgb(100%, 100%, 93.998718%)" fill-opacity="1" stroke-width="0.3985" stroke-linecap="butt" stroke-linejoin="miter" stroke="rgb(0%, 0%, 0%)" stroke-opacity="1" stroke-miterlimit="10" d="M 99.782219 0.0003125 C 99.782219 5.008125 95.719719 9.070625 90.711906 9.070625 C 85.700187 9.070625 81.637687 5.008125 81.637687 0.0003125 C 81.637687 -5.011406 85.700187 -9.07 90.711906 -9.07 C 95.719719 -9.07 99.782219 -5.011406 99.782219 0.0003125 Z M 99.782219 0.0003125 " transform="matrix(1, 0, 0, -1, 63.417, 20.68)"/>
<path fill-rule="nonzero" fill="rgb(100%, 100%, 93.998718%)" fill-opacity="1" stroke-width="0.3985" stroke-linecap="butt" stroke-linejoin="miter" stroke="rgb(0%, 0%, 0%)" stroke-opacity="1" stroke-miterlimit="10" d="M 122.458 0.0003125 C 122.458 5.008125 118.3955 9.070625 113.387687 9.070625 C 108.375969 9.070625 104.317375 5.008125 104.317375 0.0003125 C 104.317375 -5.011406 108.375969 -9.07 113.387687 -9.07 C 118.3955 -9.07 122.458 -5.011406 122.458 0.0003125 Z M 122.458 0.0003125 " transform="matrix(1, 0, 0, -1, 63.417, 20.68)"/>
<path fill-rule="nonzero" fill="rgb(100%, 100%, 93.998718%)" fill-opacity="1" stroke-width="0.3985" stroke-linecap="butt" stroke-linejoin="miter" stroke="rgb(0%, 0%, 0%)" stroke-opacity="1" stroke-miterlimit="10" d="M 145.137687 0.0003125 C 145.137687 5.008125 141.075187 9.070625 136.063469 9.070625 C 131.055656 9.070625 126.993156 5.008125 126.993156 0.0003125 C 126.993156 -5.011406 131.055656 -9.07 136.063469 -9.07 C 141.075187 -9.07 145.137687 -5.011406 145.137687 0.0003125 Z M 145.137687 0.0003125 " transform="matrix(1, 0, 0, -1, 63.417, 20.68)"/>
<path fill-rule="nonzero" fill="rgb(0%, 0%, 0%)" fill-opacity="1" stroke-width="0.3985" stroke-linecap="butt" stroke-linejoin="miter" stroke="rgb(0%, 0%, 0%)" stroke-opacity="1" stroke-miterlimit="10" d="M 4.536125 0.0003125 C 4.536125 2.504219 2.504875 4.535469 0.00096875 4.535469 C -2.502938 4.535469 -4.534188 2.504219 -4.534188 0.0003125 C -4.534188 -2.503594 -2.502938 -4.534844 0.00096875 -4.534844 C 2.504875 -4.534844 4.536125 -2.503594 4.536125 0.0003125 Z M 4.536125 0.0003125 " transform="matrix(1, 0, 0, -1, 63.417, 20.68)"/>
<path fill-rule="nonzero" fill="rgb(0%, 0%, 0%)" fill-opacity="1" stroke-width="0.3985" stroke-linecap="butt" stroke-linejoin="miter" stroke="rgb(0%, 0%, 0%)" stroke-opacity="1" stroke-miterlimit="10" d="M 27.211906 0.0003125 C 27.211906 2.504219 25.180656 4.535469 22.67675 4.535469 C 20.172844 4.535469 18.141594 2.504219 18.141594 0.0003125 C 18.141594 -2.503594 20.172844 -4.534844 22.67675 -4.534844 C 25.180656 -4.534844 27.211906 -2.503594 27.211906 0.0003125 Z M 27.211906 0.0003125 " transform="matrix(1, 0, 0, -1, 63.417, 20.68)"/>
<path fill-rule="nonzero" fill="rgb(0%, 0%, 0%)" fill-opacity="1" stroke-width="0.3985" stroke-linecap="butt" stroke-linejoin="miter" stroke="rgb(0%, 0%, 0%)" stroke-opacity="1" stroke-miterlimit="10" d="M 49.891594 0.0003125 C 49.891594 2.504219 47.860344 4.535469 45.356437 4.535469 C 42.848625 4.535469 40.821281 2.504219 40.821281 0.0003125 C 40.821281 -2.503594 42.848625 -4.534844 45.356437 -4.534844 C 47.860344 -4.534844 49.891594 -2.503594 49.891594 0.0003125 Z M 49.891594 0.0003125 " transform="matrix(1, 0, 0, -1, 63.417, 20.68)"/>
<path fill-rule="nonzero" fill="rgb(0%, 0%, 0%)" fill-opacity="1" stroke-width="0.3985" stroke-linecap="butt" stroke-linejoin="miter" stroke="rgb(0%, 0%, 0%)" stroke-opacity="1" stroke-miterlimit="10" d="M 72.567375 0.0003125 C 72.567375 2.504219 70.536125 4.535469 68.032219 4.535469 C 65.528312 4.535469 63.497062 2.504219 63.497062 0.0003125 C 63.497062 -2.503594 65.528312 -4.534844 68.032219 -4.534844 C 70.536125 -4.534844 72.567375 -2.503594 72.567375 0.0003125 Z M 72.567375 0.0003125 " transform="matrix(1, 0, 0, -1, 63.417, 20.68)"/>
<path fill-rule="nonzero" fill="rgb(0%, 0%, 0%)" fill-opacity="1" stroke-width="0.3985" stroke-linecap="butt" stroke-linejoin="miter" stroke="rgb(0%, 0%, 0%)" stroke-opacity="1" stroke-miterlimit="10" d="M 95.247062 0.0003125 C 95.247062 2.504219 93.215812 4.535469 90.711906 4.535469 C 88.204094 4.535469 86.172844 2.504219 86.172844 0.0003125 C 86.172844 -2.503594 88.204094 -4.534844 90.711906 -4.534844 C 93.215812 -4.534844 95.247062 -2.503594 95.247062 0.0003125 Z M 95.247062 0.0003125 " transform="matrix(1, 0, 0, -1, 63.417, 20.68)"/>
<path fill-rule="nonzero" fill="rgb(0%, 0%, 0%)" fill-opacity="1" stroke-width="0.3985" stroke-linecap="butt" stroke-linejoin="miter" stroke="rgb(0%, 0%, 0%)" stroke-opacity="1" stroke-miterlimit="10" d="M 117.922844 0.0003125 C 117.922844 2.504219 115.891594 4.535469 113.387687 4.535469 C 110.883781 4.535469 108.852531 2.504219 108.852531 0.0003125 C 108.852531 -2.503594 110.883781 -4.534844 113.387687 -4.534844 C 115.891594 -4.534844 117.922844 -2.503594 117.922844 0.0003125 Z M 117.922844 0.0003125 " transform="matrix(1, 0, 0, -1, 63.417, 20.68)"/>
<path fill-rule="nonzero" fill="rgb(0%, 0%, 0%)" fill-opacity="1" stroke-width="0.3985" stroke-linecap="butt" stroke-linejoin="miter" stroke="rgb(0%, 0%, 0%)" stroke-opacity="1" stroke-miterlimit="10" d="M 140.602531 0.0003125 C 140.602531 2.504219 138.571281 4.535469 136.063469 4.535469 C 133.559562 4.535469 131.528312 2.504219 131.528312 0.0003125 C 131.528312 -2.503594 133.559562 -4.534844 136.063469 -4.534844 C 138.571281 -4.534844 140.602531 -2.503594 140.602531 0.0003125 Z M 140.602531 0.0003125 " transform="matrix(1, 0, 0, -1, 63.417, 20.68)"/>
<path fill-rule="nonzero" fill="rgb(54.499817%, 26.998901%, 7.499695%)" fill-opacity="1" stroke-width="0.3985" stroke-linecap="butt" stroke-linejoin="miter" stroke="rgb(0%, 0%, 0%)" stroke-opacity="1" stroke-miterlimit="10" d="M -11.338875 -38.550469 L -11.338875 -15.874687 L 147.403312 -15.874687 L 147.403312 -38.550469 Z M -11.338875 -38.550469 " transform="matrix(1, 0, 0, -1, 63.417, 20.68)"/>
<path fill-rule="nonzero" fill="rgb(100%, 100%, 93.998718%)" fill-opacity="1" stroke-width="0.3985" stroke-linecap="butt" stroke-linejoin="miter" stroke="rgb(0%, 0%, 0%)" stroke-opacity="1" stroke-miterlimit="10" d="M 9.071281 -27.214531 C 9.071281 -22.202812 5.008781 -18.140312 0.00096875 -18.140312 C -5.01075 -18.140312 -9.069344 -22.202812 -9.069344 -27.214531 C -9.069344 -32.222344 -5.01075 -36.284844 0.00096875 -36.284844 C 5.008781 -36.284844 9.071281 -32.222344 9.071281 -27.214531 Z M 9.071281 -27.214531 " transform="matrix(1, 0, 0, -1, 63.417, 20.68)"/>
<path fill-rule="nonzero" fill="rgb(100%, 100%, 93.998718%)" fill-opacity="1" stroke-width="0.3985" stroke-linecap="butt" stroke-linejoin="miter" stroke="rgb(0%, 0%, 0%)" stroke-opacity="1" stroke-miterlimit="10" d="M 31.747062 -27.214531 C 31.747062 -22.202812 27.688469 -18.140312 22.67675 -18.140312 C 17.668937 -18.140312 13.606437 -22.202812 13.606437 -27.214531 C 13.606437 -32.222344 17.668937 -36.284844 22.67675 -36.284844 C 27.688469 -36.284844 31.747062 -32.222344 31.747062 -27.214531 Z M 31.747062 -27.214531 " transform="matrix(1, 0, 0, -1, 63.417, 20.68)"/>
<path fill-rule="nonzero" fill="rgb(100%, 100%, 93.998718%)" fill-opacity="1" stroke-width="0.3985" stroke-linecap="butt" stroke-linejoin="miter" stroke="rgb(0%, 0%, 0%)" stroke-opacity="1" stroke-miterlimit="10" d="M 54.42675 -27.214531 C 54.42675 -22.202812 50.36425 -18.140312 45.356437 -18.140312 C 40.344719 -18.140312 36.286125 -22.202812 36.286125 -27.214531 C 36.286125 -32.222344 40.344719 -36.284844 45.356437 -36.284844 C 50.36425 -36.284844 54.42675 -32.222344 54.42675 -27.214531 Z M 54.42675 -27.214531 " transform="matrix(1, 0, 0, -1, 63.417, 20.68)"/>
<path fill-rule="nonzero" fill="rgb(100%, 100%, 93.998718%)" fill-opacity="1" stroke-width="0.3985" stroke-linecap="butt" stroke-linejoin="miter" stroke="rgb(0%, 0%, 0%)" stroke-opacity="1" stroke-miterlimit="10" d="M 77.102531 -27.214531 C 77.102531 -22.202812 73.043937 -18.140312 68.032219 -18.140312 C 63.024406 -18.140312 58.961906 -22.202812 58.961906 -27.214531 C 58.961906 -32.222344 63.024406 -36.284844 68.032219 -36.284844 C 73.043937 -36.284844 77.102531 -32.222344 77.102531 -27.214531 Z M 77.102531 -27.214531 " transform="matrix(1, 0, 0, -1, 63.417, 20.68)"/>
<path fill-rule="nonzero" fill="rgb(100%, 100%, 93.998718%)" fill-opacity="1" stroke-width="0.3985" stroke-linecap="butt" stroke-linejoin="miter" stroke="rgb(0%, 0%, 0%)" stroke-opacity="1" stroke-miterlimit="10" d="M 99.782219 -27.214531 C 99.782219 -22.202812 95.719719 -18.140312 90.711906 -18.140312 C 85.700187 -18.140312 81.637687 -22.202812 81.637687 -27.214531 C 81.637687 -32.222344 85.700187 -36.284844 90.711906 -36.284844 C 95.719719 -36.284844 99.782219 -32.222344 99.782219 -27.214531 Z M 99.782219 -27.214531 " transform="matrix(1, 0, 0, -1, 63.417, 20.68)"/>
<path fill-rule="nonzero" fill="rgb(100%, 100%, 93.998718%)" fill-opacity="1" stroke-width="0.3985" stroke-linecap="butt" stroke-linejoin="miter" stroke="rgb(0%, 0%, 0%)" stroke-opacity="1" stroke-miterlimit="10" d="M 122.458 -27.214531 C 122.458 -22.202812 118.3955 -18.140312 113.387687 -18.140312 C 108.375969 -18.140312 104.317375 -22.202812 104.317375 -27.214531 C 104.317375 -32.222344 108.375969 -36.284844 113.387687 -36.284844 C 118.3955 -36.284844 122.458 -32.222344 122.458 -27.214531 Z M 122.458 -27.214531 " transform="matrix(1, 0, 0, -1, 63.417, 20.68)"/>
<path fill-rule="nonzero" fill="rgb(100%, 100%, 93.998718%)" fill-opacity="1" stroke-width="0.3985" stroke-linecap="butt" stroke-linejoin="miter" stroke="rgb(0%, 0%, 0%)" stroke-opacity="1" stroke-miterlimit="10" d="M 145.137687 -27.214531 C 145.137687 -22.202812 141.075187 -18.140312 136.063469 -18.140312 C 131.055656 -18.140312 126.993156 -22.202812 126.993156 -27.214531 C 126.993156 -32.222344 131.055656 -36.284844 136.063469 -36.284844 C 141.075187 -36.284844 145.137687 -32.222344 145.137687 -27.214531 Z M 145.137687 -27.214531 " transform="matrix(1, 0, 0, -1, 63.417, 20.68)"/>
<path fill-rule="nonzero" fill="rgb(0%, 0%, 0%)" fill-opacity="1" stroke-width="0.3985" stroke-linecap="butt" stroke-linejoin="miter" stroke="rgb(0%, 0%, 0%)" stroke-opacity="1" stroke-miterlimit="10" d="M 117.922844 -27.214531 C 117.922844 -24.706719 115.891594 -22.679375 113.387687 -22.679375 C 110.883781 -22.679375 108.852531 -24.706719 108.852531 -27.214531 C 108.852531 -29.718437 110.883781 -31.749687 113.387687 -31.749687 C 115.891594 -31.749687 117.922844 -29.718437 117.922844 -27.214531 Z M 117.922844 -27.214531 " transform="matrix(1, 0, 0, -1, 63.417, 20.68)"/>
<path fill-rule="nonzero" fill="rgb(0%, 0%, 0%)" fill-opacity="1" stroke-width="0.3985" stroke-linecap="butt" stroke-linejoin="miter" stroke="rgb(0%, 0%, 0%)" stroke-opacity="1" stroke-miterlimit="10" d="M 140.602531 -27.214531 C 140.602531 -24.706719 138.571281 -22.679375 136.063469 -22.679375 C 133.559562 -22.679375 131.528312 -24.706719 131.528312 -27.214531 C 131.528312 -29.718437 133.559562 -31.749687 136.063469 -31.749687 C 138.571281 -31.749687 140.602531 -29.718437 140.602531 -27.214531 Z M 140.602531 -27.214531 " transform="matrix(1, 0, 0, -1, 63.417, 20.68)"/>
<path fill-rule="nonzero" fill="rgb(54.499817%, 26.998901%, 7.499695%)" fill-opacity="1" stroke-width="0.3985" stroke-linecap="butt" stroke-linejoin="miter" stroke="rgb(0%, 0%, 0%)" stroke-opacity="1" stroke-miterlimit="10" d="M -11.338875 -65.765312 L -11.338875 -43.085625 L 147.403312 -43.085625 L 147.403312 -65.765312 Z M -11.338875 -65.765312 " transform="matrix(1, 0, 0, -1, 63.417, 20.68)"/>
<path fill-rule="nonzero" fill="rgb(100%, 100%, 93.998718%)" fill-opacity="1" stroke-width="0.3985" stroke-linecap="butt" stroke-linejoin="miter" stroke="rgb(0%, 0%, 0%)" stroke-opacity="1" stroke-miterlimit="10" d="M 9.071281 -54.425469 C 9.071281 -49.417656 5.008781 -45.355156 0.00096875 -45.355156 C -5.01075 -45.355156 -9.069344 -49.417656 -9.069344 -54.425469 C -9.069344 -59.437187 -5.01075 -63.495781 0.00096875 -63.495781 C 5.008781 -63.495781 9.071281 -59.437187 9.071281 -54.425469 Z M 9.071281 -54.425469 " transform="matrix(1, 0, 0, -1, 63.417, 20.68)"/>
<path fill-rule="nonzero" fill="rgb(100%, 100%, 93.998718%)" fill-opacity="1" stroke-width="0.3985" stroke-linecap="butt" stroke-linejoin="miter" stroke="rgb(0%, 0%, 0%)" stroke-opacity="1" stroke-miterlimit="10" d="M 31.747062 -54.425469 C 31.747062 -49.417656 27.688469 -45.355156 22.67675 -45.355156 C 17.668937 -45.355156 13.606437 -49.417656 13.606437 -54.425469 C 13.606437 -59.437187 17.668937 -63.495781 22.67675 -63.495781 C 27.688469 -63.495781 31.747062 -59.437187 31.747062 -54.425469 Z M 31.747062 -54.425469 " transform="matrix(1, 0, 0, -1, 63.417, 20.68)"/>
<path fill-rule="nonzero" fill="rgb(100%, 100%, 93.998718%)" fill-opacity="1" stroke-width="0.3985" stroke-linecap="butt" stroke-linejoin="miter" stroke="rgb(0%, 0%, 0%)" stroke-opacity="1" stroke-miterlimit="10" d="M 54.42675 -54.425469 C 54.42675 -49.417656 50.36425 -45.355156 45.356437 -45.355156 C 40.344719 -45.355156 36.286125 -49.417656 36.286125 -54.425469 C 36.286125 -59.437187 40.344719 -63.495781 45.356437 -63.495781 C 50.36425 -63.495781 54.42675 -59.437187 54.42675 -54.425469 Z M 54.42675 -54.425469 " transform="matrix(1, 0, 0, -1, 63.417, 20.68)"/>
<path fill-rule="nonzero" fill="rgb(100%, 100%, 93.998718%)" fill-opacity="1" stroke-width="0.3985" stroke-linecap="butt" stroke-linejoin="miter" stroke="rgb(0%, 0%, 0%)" stroke-opacity="1" stroke-miterlimit="10" d="M 77.102531 -54.425469 C 77.102531 -49.417656 73.043937 -45.355156 68.032219 -45.355156 C 63.024406 -45.355156 58.961906 -49.417656 58.961906 -54.425469 C 58.961906 -59.437187 63.024406 -63.495781 68.032219 -63.495781 C 73.043937 -63.495781 77.102531 -59.437187 77.102531 -54.425469 Z M 77.102531 -54.425469 " transform="matrix(1, 0, 0, -1, 63.417, 20.68)"/>
<path fill-rule="nonzero" fill="rgb(100%, 100%, 93.998718%)" fill-opacity="1" stroke-width="0.3985" stroke-linecap="butt" stroke-linejoin="miter" stroke="rgb(0%, 0%, 0%)" stroke-opacity="1" stroke-miterlimit="10" d="M 99.782219 -54.425469 C 99.782219 -49.417656 95.719719 -45.355156 90.711906 -45.355156 C 85.700187 -45.355156 81.637687 -49.417656 81.637687 -54.425469 C 81.637687 -59.437187 85.700187 -63.495781 90.711906 -63.495781 C 95.719719 -63.495781 99.782219 -59.437187 99.782219 -54.425469 Z M 99.782219 -54.425469 " transform="matrix(1, 0, 0, -1, 63.417, 20.68)"/>
<path fill-rule="nonzero" fill="rgb(100%, 100%, 93.998718%)" fill-opacity="1" stroke-width="0.3985" stroke-linecap="butt" stroke-linejoin="miter" stroke="rgb(0%, 0%, 0%)" stroke-opacity="1" stroke-miterlimit="10" d="M 122.458 -54.425469 C 122.458 -49.417656 118.3955 -45.355156 113.387687 -45.355156 C 108.375969 -45.355156 104.317375 -49.417656 104.317375 -54.425469 C 104.317375 -59.437187 108.375969 -63.495781 113.387687 -63.495781 C 118.3955 -63.495781 122.458 -59.437187 122.458 -54.425469 Z M 122.458 -54.425469 " transform="matrix(1, 0, 0, -1, 63.417, 20.68)"/>
<path fill-rule="nonzero" fill="rgb(100%, 100%, 93.998718%)" fill-opacity="1" stroke-width="0.3985" stroke-linecap="butt" stroke-linejoin="miter" stroke="rgb(0%, 0%, 0%)" stroke-opacity="1" stroke-miterlimit="10" d="M 145.137687 -54.425469 C 145.137687 -49.417656 141.075187 -45.355156 136.063469 -45.355156 C 131.055656 -45.355156 126.993156 -49.417656 126.993156 -54.425469 C 126.993156 -59.437187 131.055656 -63.495781 136.063469 -63.495781 C 141.075187 -63.495781 145.137687 -59.437187 145.137687 -54.425469 Z M 145.137687 -54.425469 " transform="matrix(1, 0, 0, -1, 63.417, 20.68)"/>
<path fill-rule="nonzero" fill="rgb(0%, 0%, 0%)" fill-opacity="1" stroke-width="0.3985" stroke-linecap="butt" stroke-linejoin="miter" stroke="rgb(0%, 0%, 0%)" stroke-opacity="1" stroke-miterlimit="10" d="M 117.922844 -54.425469 C 117.922844 -51.921562 115.891594 -49.890312 113.387687 -49.890312 C 110.883781 -49.890312 108.852531 -51.921562 108.852531 -54.425469 C 108.852531 -56.929375 110.883781 -58.960625 113.387687 -58.960625 C 115.891594 -58.960625 117.922844 -56.929375 117.922844 -54.425469 Z M 117.922844 -54.425469 " transform="matrix(1, 0, 0, -1, 63.417, 20.68)"/>
<path fill-rule="nonzero" fill="rgb(54.499817%, 26.998901%, 7.499695%)" fill-opacity="1" stroke-width="0.3985" stroke-linecap="butt" stroke-linejoin="miter" stroke="rgb(0%, 0%, 0%)" stroke-opacity="1" stroke-miterlimit="10" d="M -11.338875 -92.97625 L -11.338875 -70.300469 L 147.403312 -70.300469 L 147.403312 -92.97625 Z M -11.338875 -92.97625 " transform="matrix(1, 0, 0, -1, 63.417, 20.68)"/>
<path fill-rule="nonzero" fill="rgb(100%, 100%, 93.998718%)" fill-opacity="1" stroke-width="0.3985" stroke-linecap="butt" stroke-linejoin="miter" stroke="rgb(0%, 0%, 0%)" stroke-opacity="1" stroke-miterlimit="10" d="M 9.071281 -81.640312 C 9.071281 -76.628594 5.008781 -72.57 0.00096875 -72.57 C -5.01075 -72.57 -9.069344 -76.628594 -9.069344 -81.640312 C -9.069344 -86.648125 -5.01075 -90.710625 0.00096875 -90.710625 C 5.008781 -90.710625 9.071281 -86.648125 9.071281 -81.640312 Z M 9.071281 -81.640312 " transform="matrix(1, 0, 0, -1, 63.417, 20.68)"/>
<path fill-rule="nonzero" fill="rgb(100%, 100%, 93.998718%)" fill-opacity="1" stroke-width="0.3985" stroke-linecap="butt" stroke-linejoin="miter" stroke="rgb(0%, 0%, 0%)" stroke-opacity="1" stroke-miterlimit="10" d="M 31.747062 -81.640312 C 31.747062 -76.628594 27.688469 -72.57 22.67675 -72.57 C 17.668937 -72.57 13.606437 -76.628594 13.606437 -81.640312 C 13.606437 -86.648125 17.668937 -90.710625 22.67675 -90.710625 C 27.688469 -90.710625 31.747062 -86.648125 31.747062 -81.640312 Z M 31.747062 -81.640312 " transform="matrix(1, 0, 0, -1, 63.417, 20.68)"/>
<path fill-rule="nonzero" fill="rgb(100%, 100%, 93.998718%)" fill-opacity="1" stroke-width="0.3985" stroke-linecap="butt" stroke-linejoin="miter" stroke="rgb(0%, 0%, 0%)" stroke-opacity="1" stroke-miterlimit="10" d="M 54.42675 -81.640312 C 54.42675 -76.628594 50.36425 -72.57 45.356437 -72.57 C 40.344719 -72.57 36.286125 -76.628594 36.286125 -81.640312 C 36.286125 -86.648125 40.344719 -90.710625 45.356437 -90.710625 C 50.36425 -90.710625 54.42675 -86.648125 54.42675 -81.640312 Z M 54.42675 -81.640312 " transform="matrix(1, 0, 0, -1, 63.417, 20.68)"/>
<path fill-rule="nonzero" fill="rgb(100%, 100%, 93.998718%)" fill-opacity="1" stroke-width="0.3985" stroke-linecap="butt" stroke-linejoin="miter" stroke="rgb(0%, 0%, 0%)" stroke-opacity="1" stroke-miterlimit="10" d="M 77.102531 -81.640312 C 77.102531 -76.628594 73.043937 -72.57 68.032219 -72.57 C 63.024406 -72.57 58.961906 -76.628594 58.961906 -81.640312 C 58.961906 -86.648125 63.024406 -90.710625 68.032219 -90.710625 C 73.043937 -90.710625 77.102531 -86.648125 77.102531 -81.640312 Z M 77.102531 -81.640312 " transform="matrix(1, 0, 0, -1, 63.417, 20.68)"/>
<path fill-rule="nonzero" fill="rgb(100%, 100%, 93.998718%)" fill-opacity="1" stroke-width="0.3985" stroke-linecap="butt" stroke-linejoin="miter" stroke="rgb(0%, 0%, 0%)" stroke-opacity="1" stroke-miterlimit="10" d="M 99.782219 -81.640312 C 99.782219 -76.628594 95.719719 -72.57 90.711906 -72.57 C 85.700187 -72.57 81.637687 -76.628594 81.637687 -81.640312 C 81.637687 -86.648125 85.700187 -90.710625 90.711906 -90.710625 C 95.719719 -90.710625 99.782219 -86.648125 99.782219 -81.640312 Z M 99.782219 -81.640312 " transform="matrix(1, 0, 0, -1, 63.417, 20.68)"/>
<path fill-rule="nonzero" fill="rgb(100%, 100%, 93.998718%)" fill-opacity="1" stroke-width="0.3985" stroke-linecap="butt" stroke-linejoin="miter" stroke="rgb(0%, 0%, 0%)" stroke-opacity="1" stroke-miterlimit="10" d="M 122.458 -81.640312 C 122.458 -76.628594 118.3955 -72.57 113.387687 -72.57 C 108.375969 -72.57 104.317375 -76.628594 104.317375 -81.640312 C 104.317375 -86.648125 108.375969 -90.710625 113.387687 -90.710625 C 118.3955 -90.710625 122.458 -86.648125 122.458 -81.640312 Z M 122.458 -81.640312 " transform="matrix(1, 0, 0, -1, 63.417, 20.68)"/>
<path fill-rule="nonzero" fill="rgb(100%, 100%, 93.998718%)" fill-opacity="1" stroke-width="0.3985" stroke-linecap="butt" stroke-linejoin="miter" stroke="rgb(0%, 0%, 0%)" stroke-opacity="1" stroke-miterlimit="10" d="M 145.137687 -81.640312 C 145.137687 -76.628594 141.075187 -72.57 136.063469 -72.57 C 131.055656 -72.57 126.993156 -76.628594 126.993156 -81.640312 C 126.993156 -86.648125 131.055656 -90.710625 136.063469 -90.710625 C 141.075187 -90.710625 145.137687 -86.648125 145.137687 -81.640312 Z M 145.137687 -81.640312 " transform="matrix(1, 0, 0, -1, 63.417, 20.68)"/>
<path fill-rule="nonzero" fill="rgb(0%, 0%, 0%)" fill-opacity="1" stroke-width="0.3985" stroke-linecap="butt" stroke-linejoin="miter" stroke="rgb(0%, 0%, 0%)" stroke-opacity="1" stroke-miterlimit="10" d="M 4.536125 -81.640312 C 4.536125 -79.1325 2.504875 -77.105156 0.00096875 -77.105156 C -2.502938 -77.105156 -4.534188 -79.1325 -4.534188 -81.640312 C -4.534188 -84.144219 -2.502938 -86.175469 0.00096875 -86.175469 C 2.504875 -86.175469 4.536125 -84.144219 4.536125 -81.640312 Z M 4.536125 -81.640312 " transform="matrix(1, 0, 0, -1, 63.417, 20.68)"/>
<path fill-rule="nonzero" fill="rgb(0%, 0%, 0%)" fill-opacity="1" stroke-width="0.3985" stroke-linecap="butt" stroke-linejoin="miter" stroke="rgb(0%, 0%, 0%)" stroke-opacity="1" stroke-miterlimit="10" d="M 27.211906 -81.640312 C 27.211906 -79.1325 25.180656 -77.105156 22.67675 -77.105156 C 20.172844 -77.105156 18.141594 -79.1325 18.141594 -81.640312 C 18.141594 -84.144219 20.172844 -86.175469 22.67675 -86.175469 C 25.180656 -86.175469 27.211906 -84.144219 27.211906 -81.640312 Z M 27.211906 -81.640312 " transform="matrix(1, 0, 0, -1, 63.417, 20.68)"/>
<path fill-rule="nonzero" fill="rgb(0%, 0%, 0%)" fill-opacity="1" stroke-width="0.3985" stroke-linecap="butt" stroke-linejoin="miter" stroke="rgb(0%, 0%, 0%)" stroke-opacity="1" stroke-miterlimit="10" d="M 49.891594 -81.640312 C 49.891594 -79.1325 47.860344 -77.105156 45.356437 -77.105156 C 42.848625 -77.105156 40.821281 -79.1325 40.821281 -81.640312 C 40.821281 -84.144219 42.848625 -86.175469 45.356437 -86.175469 C 47.860344 -86.175469 49.891594 -84.144219 49.891594 -81.640312 Z M 49.891594 -81.640312 " transform="matrix(1, 0, 0, -1, 63.417, 20.68)"/>
<path fill-rule="nonzero" fill="rgb(0%, 0%, 0%)" fill-opacity="1" stroke-width="0.3985" stroke-linecap="butt" stroke-linejoin="miter" stroke="rgb(0%, 0%, 0%)" stroke-opacity="1" stroke-miterlimit="10" d="M 72.567375 -81.640312 C 72.567375 -79.1325 70.536125 -77.105156 68.032219 -77.105156 C 65.528312 -77.105156 63.497062 -79.1325 63.497062 -81.640312 C 63.497062 -84.144219 65.528312 -86.175469 68.032219 -86.175469 C 70.536125 -86.175469 72.567375 -84.144219 72.567375 -81.640312 Z M 72.567375 -81.640312 " transform="matrix(1, 0, 0, -1, 63.417, 20.68)"/>
<path fill-rule="nonzero" fill="rgb(0%, 0%, 0%)" fill-opacity="1" stroke-width="0.3985" stroke-linecap="butt" stroke-linejoin="miter" stroke="rgb(0%, 0%, 0%)" stroke-opacity="1" stroke-miterlimit="10" d="M 95.247062 -81.640312 C 95.247062 -79.1325 93.215812 -77.105156 90.711906 -77.105156 C 88.204094 -77.105156 86.172844 -79.1325 86.172844 -81.640312 C 86.172844 -84.144219 88.204094 -86.175469 90.711906 -86.175469 C 93.215812 -86.175469 95.247062 -84.144219 95.247062 -81.640312 Z M 95.247062 -81.640312 " transform="matrix(1, 0, 0, -1, 63.417, 20.68)"/>
<path fill-rule="nonzero" fill="rgb(0%, 0%, 0%)" fill-opacity="1" stroke-width="0.3985" stroke-linecap="butt" stroke-linejoin="miter" stroke="rgb(0%, 0%, 0%)" stroke-opacity="1" stroke-miterlimit="10" d="M 117.922844 -81.640312 C 117.922844 -79.1325 115.891594 -77.105156 113.387687 -77.105156 C 110.883781 -77.105156 108.852531 -79.1325 108.852531 -81.640312 C 108.852531 -84.144219 110.883781 -86.175469 113.387687 -86.175469 C 115.891594 -86.175469 117.922844 -84.144219 117.922844 -81.640312 Z M 117.922844 -81.640312 " transform="matrix(1, 0, 0, -1, 63.417, 20.68)"/>
<path fill-rule="nonzero" fill="rgb(54.499817%, 26.998901%, 7.499695%)" fill-opacity="1" d="M 52.078125 140.871094 L 52.078125 118.195312 L 210.820312 118.195312 L 210.820312 140.871094 Z M 52.078125 140.871094 "/>
<g clip-path="url(#clip-0)">
<path fill="none" stroke-width="0.3985" stroke-linecap="butt" stroke-linejoin="miter" stroke="rgb(0%, 0%, 0%)" stroke-opacity="1" stroke-miterlimit="10" d="M -11.338875 -120.191094 L -11.338875 -97.515312 L 147.403312 -97.515312 L 147.403312 -120.191094 Z M -11.338875 -120.191094 " transform="matrix(1, 0, 0, -1, 63.417, 20.68)"/>
</g>
<path fill-rule="nonzero" fill="rgb(100%, 100%, 93.998718%)" fill-opacity="1" d="M 72.488281 129.53125 C 72.488281 124.523438 68.425781 120.460938 63.417969 120.460938 C 58.40625 120.460938 54.347656 124.523438 54.347656 129.53125 C 54.347656 134.542969 58.40625 138.601562 63.417969 138.601562 C 68.425781 138.601562 72.488281 134.542969 72.488281 129.53125 Z M 72.488281 129.53125 "/>
<g clip-path="url(#clip-1)">
<path fill="none" stroke-width="0.3985" stroke-linecap="butt" stroke-linejoin="miter" stroke="rgb(0%, 0%, 0%)" stroke-opacity="1" stroke-miterlimit="10" d="M 9.071281 -108.85125 C 9.071281 -103.843437 5.008781 -99.780937 0.00096875 -99.780937 C -5.01075 -99.780937 -9.069344 -103.843437 -9.069344 -108.85125 C -9.069344 -113.862969 -5.01075 -117.921562 0.00096875 -117.921562 C 5.008781 -117.921562 9.071281 -113.862969 9.071281 -108.85125 Z M 9.071281 -108.85125 " transform="matrix(1, 0, 0, -1, 63.417, 20.68)"/>
</g>
<path fill-rule="nonzero" fill="rgb(100%, 100%, 93.998718%)" fill-opacity="1" d="M 95.164062 129.53125 C 95.164062 124.523438 91.105469 120.460938 86.09375 120.460938 C 81.085938 120.460938 77.023438 124.523438 77.023438 129.53125 C 77.023438 134.542969 81.085938 138.601562 86.09375 138.601562 C 91.105469 138.601562 95.164062 134.542969 95.164062 129.53125 Z M 95.164062 129.53125 "/>
<g clip-path="url(#clip-2)">
<path fill="none" stroke-width="0.3985" stroke-linecap="butt" stroke-linejoin="miter" stroke="rgb(0%, 0%, 0%)" stroke-opacity="1" stroke-miterlimit="10" d="M 31.747062 -108.85125 C 31.747062 -103.843437 27.688469 -99.780937 22.67675 -99.780937 C 17.668937 -99.780937 13.606437 -103.843437 13.606437 -108.85125 C 13.606437 -113.862969 17.668937 -117.921562 22.67675 -117.921562 C 27.688469 -117.921562 31.747062 -113.862969 31.747062 -108.85125 Z M 31.747062 -108.85125 " transform="matrix(1, 0, 0, -1, 63.417, 20.68)"/>
</g>
<path fill-rule="nonzero" fill="rgb(100%, 100%, 93.998718%)" fill-opacity="1" d="M 117.84375 129.53125 C 117.84375 124.523438 113.78125 120.460938 108.773438 120.460938 C 103.761719 120.460938 99.703125 124.523438 99.703125 129.53125 C 99.703125 134.542969 103.761719 138.601562 108.773438 138.601562 C 113.78125 138.601562 117.84375 134.542969 117.84375 129.53125 Z M 117.84375 129.53125 "/>
<g clip-path="url(#clip-3)">
<path fill="none" stroke-width="0.3985" stroke-linecap="butt" stroke-linejoin="miter" stroke="rgb(0%, 0%, 0%)" stroke-opacity="1" stroke-miterlimit="10" d="M 54.42675 -108.85125 C 54.42675 -103.843437 50.36425 -99.780937 45.356437 -99.780937 C 40.344719 -99.780937 36.286125 -103.843437 36.286125 -108.85125 C 36.286125 -113.862969 40.344719 -117.921562 45.356437 -117.921562 C 50.36425 -117.921562 54.42675 -113.862969 54.42675 -108.85125 Z M 54.42675 -108.85125 " transform="matrix(1, 0, 0, -1, 63.417, 20.68)"/>
</g>
<path fill-rule="nonzero" fill="rgb(100%, 100%, 93.998718%)" fill-opacity="1" d="M 140.519531 129.53125 C 140.519531 124.523438 136.460938 120.460938 131.449219 120.460938 C 126.441406 120.460938 122.378906 124.523438 122.378906 129.53125 C 122.378906 134.542969 126.441406 138.601562 131.449219 138.601562 C 136.460938 138.601562 140.519531 134.542969 140.519531 129.53125 Z M 140.519531 129.53125 "/>
<g clip-path="url(#clip-4)">
<path fill="none" stroke-width="0.3985" stroke-linecap="butt" stroke-linejoin="miter" stroke="rgb(0%, 0%, 0%)" stroke-opacity="1" stroke-miterlimit="10" d="M 77.102531 -108.85125 C 77.102531 -103.843437 73.043937 -99.780937 68.032219 -99.780937 C 63.024406 -99.780937 58.961906 -103.843437 58.961906 -108.85125 C 58.961906 -113.862969 63.024406 -117.921562 68.032219 -117.921562 C 73.043937 -117.921562 77.102531 -113.862969 77.102531 -108.85125 Z M 77.102531 -108.85125 " transform="matrix(1, 0, 0, -1, 63.417, 20.68)"/>
</g>
<path fill-rule="nonzero" fill="rgb(100%, 100%, 93.998718%)" fill-opacity="1" d="M 163.199219 129.53125 C 163.199219 124.523438 159.136719 120.460938 154.128906 120.460938 C 149.117188 120.460938 145.054688 124.523438 145.054688 129.53125 C 145.054688 134.542969 149.117188 138.601562 154.128906 138.601562 C 159.136719 138.601562 163.199219 134.542969 163.199219 129.53125 Z M 163.199219 129.53125 "/>
<g clip-path="url(#clip-5)">
<path fill="none" stroke-width="0.3985" stroke-linecap="butt" stroke-linejoin="miter" stroke="rgb(0%, 0%, 0%)" stroke-opacity="1" stroke-miterlimit="10" d="M 99.782219 -108.85125 C 99.782219 -103.843437 95.719719 -99.780937 90.711906 -99.780937 C 85.700187 -99.780937 81.637687 -103.843437 81.637687 -108.85125 C 81.637687 -113.862969 85.700187 -117.921562 90.711906 -117.921562 C 95.719719 -117.921562 99.782219 -113.862969 99.782219 -108.85125 Z M 99.782219 -108.85125 " transform="matrix(1, 0, 0, -1, 63.417, 20.68)"/>
</g>
<path fill-rule="nonzero" fill="rgb(100%, 100%, 93.998718%)" fill-opacity="1" d="M 185.875 129.53125 C 185.875 124.523438 181.8125 120.460938 176.804688 120.460938 C 171.792969 120.460938 167.734375 124.523438 167.734375 129.53125 C 167.734375 134.542969 171.792969 138.601562 176.804688 138.601562 C 181.8125 138.601562 185.875 134.542969 185.875 129.53125 Z M 185.875 129.53125 "/>
<g clip-path="url(#clip-6)">
<path fill="none" stroke-width="0.3985" stroke-linecap="butt" stroke-linejoin="miter" stroke="rgb(0%, 0%, 0%)" stroke-opacity="1" stroke-miterlimit="10" d="M 122.458 -108.85125 C 122.458 -103.843437 118.3955 -99.780937 113.387687 -99.780937 C 108.375969 -99.780937 104.317375 -103.843437 104.317375 -108.85125 C 104.317375 -113.862969 108.375969 -117.921562 113.387687 -117.921562 C 118.3955 -117.921562 122.458 -113.862969 122.458 -108.85125 Z M 122.458 -108.85125 " transform="matrix(1, 0, 0, -1, 63.417, 20.68)"/>
</g>
<path fill-rule="nonzero" fill="rgb(100%, 100%, 93.998718%)" fill-opacity="1" d="M 208.554688 129.53125 C 208.554688 124.523438 204.492188 120.460938 199.480469 120.460938 C 194.472656 120.460938 190.410156 124.523438 190.410156 129.53125 C 190.410156 134.542969 194.472656 138.601562 199.480469 138.601562 C 204.492188 138.601562 208.554688 134.542969 208.554688 129.53125 Z M 208.554688 129.53125 "/>
<g clip-path="url(#clip-7)">
<path fill="none" stroke-width="0.3985" stroke-linecap="butt" stroke-linejoin="miter" stroke="rgb(0%, 0%, 0%)" stroke-opacity="1" stroke-miterlimit="10" d="M 145.137687 -108.85125 C 145.137687 -103.843437 141.075187 -99.780937 136.063469 -99.780937 C 131.055656 -99.780937 126.993156 -103.843437 126.993156 -108.85125 C 126.993156 -113.862969 131.055656 -117.921562 136.063469 -117.921562 C 141.075187 -117.921562 145.137687 -113.862969 145.137687 -108.85125 Z M 145.137687 -108.85125 " transform="matrix(1, 0, 0, -1, 63.417, 20.68)"/>
</g>
<path fill="none" stroke-width="1.19553" stroke-linecap="butt" stroke-linejoin="miter" stroke="rgb(100%, 0%, 0%)" stroke-opacity="1" stroke-miterlimit="10" d="M -34.014656 0.0003125 L -34.014656 -105.66375 " transform="matrix(1, 0, 0, -1, 63.417, 20.68)"/>
<path fill-rule="nonzero" fill="rgb(100%, 0%, 0%)" fill-opacity="1" d="M 29.402344 129.53125 L 31.953125 124.429688 L 29.402344 126.34375 L 26.851562 124.429688 "/>
<g fill="rgb(100%, 0%, 0%)" fill-opacity="1">
<use xlink:href="#glyph-0-0" x="2.439" y="78.567"/>
<use xlink:href="#glyph-0-1" x="7.778954" y="78.567"/>
<use xlink:href="#glyph-0-2" x="10.797621" y="78.567"/>
<use xlink:href="#glyph-0-3" x="16.715406" y="78.567"/>
<use xlink:href="#glyph-0-4" x="21.437678" y="78.567"/>
</g>
<path fill="none" stroke-width="1.19553" stroke-linecap="butt" stroke-linejoin="miter" stroke="rgb(100%, 0%, 0%)" stroke-opacity="1" stroke-miterlimit="10" d="M 170.083 -3.187187 L 170.083 -108.85125 " transform="matrix(1, 0, 0, -1, 63.417, 20.68)"/>
<path fill-rule="nonzero" fill="rgb(100%, 0%, 0%)" fill-opacity="1" d="M 233.5 20.679688 L 230.949219 25.78125 L 233.5 23.867188 L 236.050781 25.78125 "/>
<g fill="rgb(100%, 0%, 0%)" fill-opacity="1">
<use xlink:href="#glyph-0-4" x="237.414" y="77.402"/>
<use xlink:href="#glyph-0-3" x="241.458816" y="77.402"/>
<use xlink:href="#glyph-0-5" x="246.181088" y="77.402"/>
</g>
<g fill="rgb(100%, 0%, 0%)" fill-opacity="1">
<use xlink:href="#glyph-0-6" x="254.828625" y="77.402"/>
<use xlink:href="#glyph-0-7" x="260.796222" y="77.402"/>
<use xlink:href="#glyph-0-1" x="263.944404" y="77.402"/>
<use xlink:href="#glyph-0-4" x="266.963072" y="77.402"/>
</g>
</svg>
