<?xml version="1.0" encoding="UTF-8"?>
<svg xmlns="http://www.w3.org/2000/svg" xmlns:xlink="http://www.w3.org/1999/xlink" width="521.655pt" height="133.569pt" viewBox="0 0 521.655 133.569">
<rect x="-52.1655" y="-13.3569" width="625.986" height="160.2828" fill="rgb(100%, 100%, 100%)" fill-opacity="1"/>
<path fill="none" stroke-width="2.98883" stroke-linecap="butt" stroke-linejoin="miter" stroke="rgb(54.499817%, 26.998901%, 7.499695%)" stroke-opacity="1" stroke-miterlimit="10" d="M -42.340472 -1.495569 L 166.874923 -1.495569 " transform="matrix(1.12485, 0, 0, -1.12485, 57.298555, 62.235678)"/>
<path fill="none" stroke-width="2.98883" stroke-linecap="round" stroke-linejoin="miter" stroke="rgb(54.499817%, 26.998901%, 7.499695%)" stroke-opacity="1" stroke-miterlimit="10" d="M -0.00149349 0.00115847 L -0.00149349 34.870391 " transform="matrix(1.12485, 0, 0, -1.12485, 57.298555, 62.235678)"/>
<path fill="none" stroke-width="2.98883" stroke-linecap="round" stroke-linejoin="miter" stroke="rgb(54.499817%, 26.998901%, 7.499695%)" stroke-opacity="1" stroke-miterlimit="10" d="M 62.267226 0.00115847 L 62.267226 34.870391 " transform="matrix(1.12485, 0, 0, -1.12485, 57.298555, 62.235678)"/>
<path fill="none" stroke-width="2.98883" stroke-linecap="round" stroke-linejoin="miter" stroke="rgb(54.499817%, 26.998901%, 7.499695%)" stroke-opacity="1" stroke-miterlimit="10" d="M 124.535945 0.00115847 L 124.535945 34.870391 " transform="matrix(1.12485, 0, 0, -1.12485, 57.298555, 62.235678)"/>
<path fill-rule="nonzero" fill="rgb(80.39856%, 51.998901%, 24.798584%)" fill-opacity="1" stroke-width="0.3985" stroke-linecap="butt" stroke-linejoin="miter" stroke="rgb(0%, 0%, 0%)" stroke-opacity="1" stroke-miterlimit="10" d="M -29.887423 0.00115847 L -29.887423 4.980989 L 29.887908 4.980989 L 29.887908 0.00115847 Z M -29.887423 0.00115847 " transform="matrix(1.12485, 0, 0, -1.12485, 57.298555, 62.235678)"/>
<path fill-rule="nonzero" fill="rgb(95.999146%, 86.999512%, 69.999695%)" fill-opacity="1" stroke-width="0.3985" stroke-linecap="butt" stroke-linejoin="miter" stroke="rgb(0%, 0%, 0%)" stroke-opacity="1" stroke-miterlimit="10" d="M -24.907592 4.980989 L -24.907592 9.964292 L 24.908078 9.964292 L 24.908078 4.980989 Z M -24.907592 4.980989 " transform="matrix(1.12485, 0, 0, -1.12485, 57.298555, 62.235678)"/>
<path fill-rule="nonzero" fill="rgb(95.999146%, 86.999512%, 69.999695%)" fill-opacity="1" stroke-width="0.3985" stroke-linecap="butt" stroke-linejoin="miter" stroke="rgb(0%, 0%, 0%)" stroke-opacity="1" stroke-miterlimit="10" d="M -19.924289 9.964292 L -19.924289 14.944123 L 19.924774 14.944123 L 19.924774 9.964292 Z M -19.924289 9.964292 " transform="matrix(1.12485, 0, 0, -1.12485, 57.298555, 62.235678)"/>
<path fill-rule="nonzero" fill="rgb(95.999146%, 86.999512%, 69.999695%)" fill-opacity="1" stroke-width="0.3985" stroke-linecap="butt" stroke-linejoin="miter" stroke="rgb(0%, 0%, 0%)" stroke-opacity="1" stroke-miterlimit="10" d="M -14.944458 14.944123 L -14.944458 19.923954 L 14.944944 19.923954 L 14.944944 14.944123 Z M -14.944458 14.944123 " transform="matrix(1.12485, 0, 0, -1.12485, 57.298555, 62.235678)"/>
<path fill-rule="nonzero" fill="rgb(95.999146%, 86.999512%, 69.999695%)" fill-opacity="1" stroke-width="0.3985" stroke-linecap="butt" stroke-linejoin="miter" stroke="rgb(0%, 0%, 0%)" stroke-opacity="1" stroke-miterlimit="10" d="M -9.961155 19.923954 L -9.961155 24.907257 L 9.96164 24.907257 L 9.96164 19.923954 Z M -9.961155 19.923954 " transform="matrix(1.12485, 0, 0, -1.12485, 57.298555, 62.235678)"/>
<path fill-rule="nonzero" fill="rgb(95.999146%, 86.999512%, 69.999695%)" fill-opacity="1" stroke-width="0.3985" stroke-linecap="butt" stroke-linejoin="miter" stroke="rgb(0%, 0%, 0%)" stroke-opacity="1" stroke-miterlimit="10" d="M -4.981324 24.907257 L -4.981324 29.887088 L 4.98181 29.887088 L 4.98181 24.907257 Z M -4.981324 24.907257 " transform="matrix(1.12485, 0, 0, -1.12485, 57.298555, 62.235678)"/>
<path fill="none" stroke-width="1.19553" stroke-linecap="butt" stroke-linejoin="miter" stroke="rgb(0%, 0%, 0%)" stroke-opacity="1" stroke-miterlimit="10" d="M -0.00149349 39.850222 C 12.142487 48.261065 50.126718 48.261065 59.641876 41.669909 " transform="matrix(1.12485, 0, 0, -1.12485, 57.298555, 62.235678)"/>
<path fill-rule="nonzero" fill="rgb(0%, 0%, 0%)" fill-opacity="1" d="M 127.339844 17.410156 L 124.253906 11.777344 L 124.386719 15.363281 L 120.980469 16.5 "/>
<path fill="none" stroke-width="2.98883" stroke-linecap="butt" stroke-linejoin="miter" stroke="rgb(54.499817%, 26.998901%, 7.499695%)" stroke-opacity="1" stroke-miterlimit="10" d="M -42.340294 -1.495569 L 166.875102 -1.495569 " transform="matrix(1.12485, 0, 0, -1.12485, 321.267104, 62.235678)"/>
<path fill="none" stroke-width="2.98883" stroke-linecap="round" stroke-linejoin="miter" stroke="rgb(54.499817%, 26.998901%, 7.499695%)" stroke-opacity="1" stroke-miterlimit="10" d="M -0.00131524 0.00115847 L -0.00131524 34.870391 " transform="matrix(1.12485, 0, 0, -1.12485, 321.267104, 62.235678)"/>
<path fill="none" stroke-width="2.98883" stroke-linecap="round" stroke-linejoin="miter" stroke="rgb(54.499817%, 26.998901%, 7.499695%)" stroke-opacity="1" stroke-miterlimit="10" d="M 62.267404 0.00115847 L 62.267404 34.870391 " transform="matrix(1.12485, 0, 0, -1.12485, 321.267104, 62.235678)"/>
<path fill="none" stroke-width="2.98883" stroke-linecap="round" stroke-linejoin="miter" stroke="rgb(54.499817%, 26.998901%, 7.499695%)" stroke-opacity="1" stroke-miterlimit="10" d="M 124.536123 0.00115847 L 124.536123 34.870391 " transform="matrix(1.12485, 0, 0, -1.12485, 321.267104, 62.235678)"/>
<path fill-rule="nonzero" fill="rgb(80.39856%, 51.998901%, 24.798584%)" fill-opacity="1" stroke-width="0.3985" stroke-linecap="butt" stroke-linejoin="miter" stroke="rgb(0%, 0%, 0%)" stroke-opacity="1" stroke-miterlimit="10" d="M -29.887244 0.00115847 L -29.887244 4.980989 L 29.888087 4.980989 L 29.888087 0.00115847 Z M -29.887244 0.00115847 " transform="matrix(1.12485, 0, 0, -1.12485, 321.267104, 62.235678)"/>
<path fill-rule="nonzero" fill="rgb(95.999146%, 86.999512%, 69.999695%)" fill-opacity="1" stroke-width="0.3985" stroke-linecap="butt" stroke-linejoin="miter" stroke="rgb(0%, 0%, 0%)" stroke-opacity="1" stroke-miterlimit="10" d="M 37.361305 0.00115847 L 37.361305 4.980989 L 87.173503 4.980989 L 87.173503 0.00115847 Z M 37.361305 0.00115847 " transform="matrix(1.12485, 0, 0, -1.12485, 321.267104, 62.235678)"/>
<path fill-rule="nonzero" fill="rgb(95.999146%, 86.999512%, 69.999695%)" fill-opacity="1" stroke-width="0.3985" stroke-linecap="butt" stroke-linejoin="miter" stroke="rgb(0%, 0%, 0%)" stroke-opacity="1" stroke-miterlimit="10" d="M 42.341136 4.980989 L 42.341136 9.964292 L 82.193672 9.964292 L 82.193672 4.980989 Z M 42.341136 4.980989 " transform="matrix(1.12485, 0, 0, -1.12485, 321.267104, 62.235678)"/>
<path fill-rule="nonzero" fill="rgb(95.999146%, 86.999512%, 69.999695%)" fill-opacity="1" stroke-width="0.3985" stroke-linecap="butt" stroke-linejoin="miter" stroke="rgb(0%, 0%, 0%)" stroke-opacity="1" stroke-miterlimit="10" d="M 47.324439 9.964292 L 47.324439 14.944123 L 77.210369 14.944123 L 77.210369 9.964292 Z M 47.324439 9.964292 " transform="matrix(1.12485, 0, 0, -1.12485, 321.267104, 62.235678)"/>
<path fill-rule="nonzero" fill="rgb(95.999146%, 86.999512%, 69.999695%)" fill-opacity="1" stroke-width="0.3985" stroke-linecap="butt" stroke-linejoin="miter" stroke="rgb(0%, 0%, 0%)" stroke-opacity="1" stroke-miterlimit="10" d="M 52.30427 14.944123 L 52.30427 19.923954 L 72.230538 19.923954 L 72.230538 14.944123 Z M 52.30427 14.944123 " transform="matrix(1.12485, 0, 0, -1.12485, 321.267104, 62.235678)"/>
<path fill-rule="nonzero" fill="rgb(95.999146%, 86.999512%, 69.999695%)" fill-opacity="1" stroke-width="0.3985" stroke-linecap="butt" stroke-linejoin="miter" stroke="rgb(0%, 0%, 0%)" stroke-opacity="1" stroke-miterlimit="10" d="M 57.287573 19.923954 L 57.287573 24.907257 L 67.247235 24.907257 L 67.247235 19.923954 Z M 57.287573 19.923954 " transform="matrix(1.12485, 0, 0, -1.12485, 321.267104, 62.235678)"/>
<path fill="none" stroke-width="1.19553" stroke-linecap="butt" stroke-linejoin="miter" stroke="rgb(0%, 0%, 0%)" stroke-opacity="1" stroke-miterlimit="10" d="M -0.00131524 39.850222 C 24.283173 56.675382 100.251635 56.675382 121.910773 41.669909 " transform="matrix(1.12485, 0, 0, -1.12485, 321.267104, 62.235678)"/>
<path fill-rule="nonzero" fill="rgb(0%, 0%, 0%)" fill-opacity="1" d="M 461.351562 17.410156 L 458.261719 11.777344 L 458.398438 15.363281 L 454.992188 16.5 "/>
<path fill="none" stroke-width="2.98883" stroke-linecap="butt" stroke-linejoin="miter" stroke="rgb(54.499817%, 26.998901%, 7.499695%)" stroke-opacity="1" stroke-miterlimit="10" d="M -42.340472 -1.493574 L 166.874923 -1.493574 " transform="matrix(1.12485, 0, 0, -1.12485, 57.298555, 127.663703)"/>
<path fill="none" stroke-width="2.98883" stroke-linecap="round" stroke-linejoin="miter" stroke="rgb(54.499817%, 26.998901%, 7.499695%)" stroke-opacity="1" stroke-miterlimit="10" d="M -0.00149349 -0.00031942 L -0.00149349 34.868913 " transform="matrix(1.12485, 0, 0, -1.12485, 57.298555, 127.663703)"/>
<path fill="none" stroke-width="2.98883" stroke-linecap="round" stroke-linejoin="miter" stroke="rgb(54.499817%, 26.998901%, 7.499695%)" stroke-opacity="1" stroke-miterlimit="10" d="M 62.267226 -0.00031942 L 62.267226 34.868913 " transform="matrix(1.12485, 0, 0, -1.12485, 57.298555, 127.663703)"/>
<path fill="none" stroke-width="2.98883" stroke-linecap="round" stroke-linejoin="miter" stroke="rgb(54.499817%, 26.998901%, 7.499695%)" stroke-opacity="1" stroke-miterlimit="10" d="M 124.535945 -0.00031942 L 124.535945 34.868913 " transform="matrix(1.12485, 0, 0, -1.12485, 57.298555, 127.663703)"/>
<path fill-rule="nonzero" fill="rgb(80.39856%, 51.998901%, 24.798584%)" fill-opacity="1" stroke-width="0.3985" stroke-linecap="butt" stroke-linejoin="miter" stroke="rgb(0%, 0%, 0%)" stroke-opacity="1" stroke-miterlimit="10" d="M 94.646543 -0.00031942 L 94.646543 4.982984 L 154.421874 4.982984 L 154.421874 -0.00031942 Z M 94.646543 -0.00031942 " transform="matrix(1.12485, 0, 0, -1.12485, 57.298555, 127.663703)"/>
<path fill-rule="nonzero" fill="rgb(95.999146%, 86.999512%, 69.999695%)" fill-opacity="1" stroke-width="0.3985" stroke-linecap="butt" stroke-linejoin="miter" stroke="rgb(0%, 0%, 0%)" stroke-opacity="1" stroke-miterlimit="10" d="M 37.361127 -0.00031942 L 37.361127 4.982984 L 87.173324 4.982984 L 87.173324 -0.00031942 Z M 37.361127 -0.00031942 " transform="matrix(1.12485, 0, 0, -1.12485, 57.298555, 127.663703)"/>
<path fill-rule="nonzero" fill="rgb(95.999146%, 86.999512%, 69.999695%)" fill-opacity="1" stroke-width="0.3985" stroke-linecap="butt" stroke-linejoin="miter" stroke="rgb(0%, 0%, 0%)" stroke-opacity="1" stroke-miterlimit="10" d="M 42.340958 4.982984 L 42.340958 9.962815 L 82.193494 9.962815 L 82.193494 4.982984 Z M 42.340958 4.982984 " transform="matrix(1.12485, 0, 0, -1.12485, 57.298555, 127.663703)"/>
<path fill-rule="nonzero" fill="rgb(95.999146%, 86.999512%, 69.999695%)" fill-opacity="1" stroke-width="0.3985" stroke-linecap="butt" stroke-linejoin="miter" stroke="rgb(0%, 0%, 0%)" stroke-opacity="1" stroke-miterlimit="10" d="M 47.324261 9.962815 L 47.324261 14.942645 L 77.21019 14.942645 L 77.21019 9.962815 Z M 47.324261 9.962815 " transform="matrix(1.12485, 0, 0, -1.12485, 57.298555, 127.663703)"/>
<path fill-rule="nonzero" fill="rgb(95.999146%, 86.999512%, 69.999695%)" fill-opacity="1" stroke-width="0.3985" stroke-linecap="butt" stroke-linejoin="miter" stroke="rgb(0%, 0%, 0%)" stroke-opacity="1" stroke-miterlimit="10" d="M 52.304092 14.942645 L 52.304092 19.925949 L 72.23036 19.925949 L 72.23036 14.942645 Z M 52.304092 14.942645 " transform="matrix(1.12485, 0, 0, -1.12485, 57.298555, 127.663703)"/>
<path fill-rule="nonzero" fill="rgb(95.999146%, 86.999512%, 69.999695%)" fill-opacity="1" stroke-width="0.3985" stroke-linecap="butt" stroke-linejoin="miter" stroke="rgb(0%, 0%, 0%)" stroke-opacity="1" stroke-miterlimit="10" d="M 57.287395 19.925949 L 57.287395 24.905779 L 67.247056 24.905779 L 67.247056 19.925949 Z M 57.287395 19.925949 " transform="matrix(1.12485, 0, 0, -1.12485, 57.298555, 127.663703)"/>
<path fill="none" stroke-width="1.19553" stroke-linecap="butt" stroke-linejoin="miter" stroke="rgb(0%, 0%, 0%)" stroke-opacity="1" stroke-miterlimit="10" d="M 62.267226 39.852216 C 74.407733 48.26306 112.391965 48.26306 121.910595 41.668431 " transform="matrix(1.12485, 0, 0, -1.12485, 57.298555, 127.663703)"/>
<path fill-rule="nonzero" fill="rgb(0%, 0%, 0%)" fill-opacity="1" d="M 197.382812 82.835938 L 194.292969 77.203125 L 194.429688 80.792969 L 191.023438 81.925781 "/>
<path fill="none" stroke-width="2.98883" stroke-linecap="butt" stroke-linejoin="miter" stroke="rgb(54.499817%, 26.998901%, 7.499695%)" stroke-opacity="1" stroke-miterlimit="10" d="M -42.340294 -1.493574 L 166.875102 -1.493574 " transform="matrix(1.12485, 0, 0, -1.12485, 321.267104, 127.663703)"/>
<path fill="none" stroke-width="2.98883" stroke-linecap="round" stroke-linejoin="miter" stroke="rgb(54.499817%, 26.998901%, 7.499695%)" stroke-opacity="1" stroke-miterlimit="10" d="M -0.00131524 -0.00031942 L -0.00131524 34.868913 " transform="matrix(1.12485, 0, 0, -1.12485, 321.267104, 127.663703)"/>
<path fill="none" stroke-width="2.98883" stroke-linecap="round" stroke-linejoin="miter" stroke="rgb(54.499817%, 26.998901%, 7.499695%)" stroke-opacity="1" stroke-miterlimit="10" d="M 62.267404 -0.00031942 L 62.267404 34.868913 " transform="matrix(1.12485, 0, 0, -1.12485, 321.267104, 127.663703)"/>
<path fill="none" stroke-width="2.98883" stroke-linecap="round" stroke-linejoin="miter" stroke="rgb(54.499817%, 26.998901%, 7.499695%)" stroke-opacity="1" stroke-miterlimit="10" d="M 124.536123 -0.00031942 L 124.536123 34.868913 " transform="matrix(1.12485, 0, 0, -1.12485, 321.267104, 127.663703)"/>
<path fill-rule="nonzero" fill="rgb(80.39856%, 51.998901%, 24.798584%)" fill-opacity="1" stroke-width="0.3985" stroke-linecap="butt" stroke-linejoin="miter" stroke="rgb(0%, 0%, 0%)" stroke-opacity="1" stroke-miterlimit="10" d="M 94.646721 -0.00031942 L 94.646721 4.982984 L 154.422052 4.982984 L 154.422052 -0.00031942 Z M 94.646721 -0.00031942 " transform="matrix(1.12485, 0, 0, -1.12485, 321.267104, 127.663703)"/>
<path fill-rule="nonzero" fill="rgb(95.999146%, 86.999512%, 69.999695%)" fill-opacity="1" stroke-width="0.3985" stroke-linecap="butt" stroke-linejoin="miter" stroke="rgb(0%, 0%, 0%)" stroke-opacity="1" stroke-miterlimit="10" d="M 99.626552 4.982984 L 99.626552 9.962815 L 149.442222 9.962815 L 149.442222 4.982984 Z M 99.626552 4.982984 " transform="matrix(1.12485, 0, 0, -1.12485, 321.267104, 127.663703)"/>
<path fill-rule="nonzero" fill="rgb(95.999146%, 86.999512%, 69.999695%)" fill-opacity="1" stroke-width="0.3985" stroke-linecap="butt" stroke-linejoin="miter" stroke="rgb(0%, 0%, 0%)" stroke-opacity="1" stroke-miterlimit="10" d="M 104.609855 9.962815 L 104.609855 14.942645 L 144.458918 14.942645 L 144.458918 9.962815 Z M 104.609855 9.962815 " transform="matrix(1.12485, 0, 0, -1.12485, 321.267104, 127.663703)"/>
<path fill-rule="nonzero" fill="rgb(95.999146%, 86.999512%, 69.999695%)" fill-opacity="1" stroke-width="0.3985" stroke-linecap="butt" stroke-linejoin="miter" stroke="rgb(0%, 0%, 0%)" stroke-opacity="1" stroke-miterlimit="10" d="M 109.589686 14.942645 L 109.589686 19.925949 L 139.479088 19.925949 L 139.479088 14.942645 Z M 109.589686 14.942645 " transform="matrix(1.12485, 0, 0, -1.12485, 321.267104, 127.663703)"/>
<path fill-rule="nonzero" fill="rgb(95.999146%, 86.999512%, 69.999695%)" fill-opacity="1" stroke-width="0.3985" stroke-linecap="butt" stroke-linejoin="miter" stroke="rgb(0%, 0%, 0%)" stroke-opacity="1" stroke-miterlimit="10" d="M 114.572989 19.925949 L 114.572989 24.905779 L 134.495784 24.905779 L 134.495784 19.925949 Z M 114.572989 19.925949 " transform="matrix(1.12485, 0, 0, -1.12485, 321.267104, 127.663703)"/>
<path fill-rule="nonzero" fill="rgb(95.999146%, 86.999512%, 69.999695%)" fill-opacity="1" stroke-width="0.3985" stroke-linecap="butt" stroke-linejoin="miter" stroke="rgb(0%, 0%, 0%)" stroke-opacity="1" stroke-miterlimit="10" d="M 119.55282 24.905779 L 119.55282 29.889082 L 129.515954 29.889082 L 129.515954 24.905779 Z M 119.55282 24.905779 " transform="matrix(1.12485, 0, 0, -1.12485, 321.267104, 127.663703)"/>
</svg>
